<?xml version="1.0" encoding="UTF-8" standalone="no"?>
<svg
   xmlns:dc="http://purl.org/dc/elements/1.1/"
   xmlns:cc="http://creativecommons.org/ns#"
   xmlns:rdf="http://www.w3.org/1999/02/22-rdf-syntax-ns#"
   xmlns:svg="http://www.w3.org/2000/svg"
   xmlns="http://www.w3.org/2000/svg"
   xmlns:sodipodi="http://sodipodi.sourceforge.net/DTD/sodipodi-0.dtd"
   xmlns:inkscape="http://www.inkscape.org/namespaces/inkscape"
   viewBox="0 0 1156 1156"
   version="1.1"
   id="svg3791"
   sodipodi:docname="icon.svg"
   inkscape:version="0.92.4 5da689c313, 2019-01-14">
  <metadata
     id="metadata3795">
    <rdf:RDF>
      <cc:Work
         rdf:about="">
        <dc:format>image/svg+xml</dc:format>
        <dc:type
           rdf:resource="http://purl.org/dc/dcmitype/StillImage" />
      </cc:Work>
    </rdf:RDF>
  </metadata>
  <sodipodi:namedview
     pagecolor="#ffffff"
     bordercolor="#666666"
     borderopacity="1"
     objecttolerance="10"
     gridtolerance="10"
     guidetolerance="10"
     inkscape:pageopacity="0"
     inkscape:pageshadow="2"
     inkscape:window-width="1838"
     inkscape:window-height="1143"
     id="namedview3793"
     showgrid="false"
     inkscape:zoom="0.2764812"
     inkscape:cx="324.40213"
     inkscape:cy="-242.56861"
     inkscape:window-x="0"
     inkscape:window-y="27"
     inkscape:window-maximized="1"
     inkscape:current-layer="svg3791" />
  <defs
     id="defs3776">
    <style
       id="style3774">.cls-1{isolation:isolate;}.cls-2{fill:#ffffff;}.cls-3{fill:#ffffff;}</style>
  </defs>
  <g
     id="Exponent"
     class="cls-1"
     transform="matrix(1.2660777,0,0,1.2660777,-153.79289,-153.25675)"
     style="isolation:isolate">
    <path
       class="cls-2"
       d="m 1024.5,534.05 c 1.23,13.58 2.08,27.28 2.08,41.19 v 0 c 0,-13.91 -0.85,-27.6 -2.08,-41.19 z"
       id="path3778"
       inkscape:connector-curvature="0"
       style="fill:#ffffff" />
    <path
       class="cls-2"
       d="m 359,531.68 c 0,0 -124.75,459.64 375.26,463.64 156.88,-58.4 272.48,-201.58 290,-374.2 1.21,-11.94 1.57,-24.12 1.84,-36.32 0.05,-3.21 0.48,-6.33 0.48,-9.56 0,-13.9 -0.85,-27.61 -2.08,-41.19 C 892.4,1054.08 308,850.39 359,531.68 Z"
       id="path3780"
       inkscape:connector-curvature="0"
       style="fill:#ffffff" />
    <path
       class="cls-2"
       d="m 617.54,361.07 c 0,0 -465.54,-130.01 -458.38,377.61 a 449.86,449.86 0 0 0 108.49,162.17 c 2,1.89 4.07,3.68 6.09,5.54 a 450.17,450.17 0 0 0 42.54,34.67 c 2.31,1.65 4.48,3.47 6.8,5.08 a 446.74,446.74 0 0 0 49.11,29.16 c 4.93,2.54 10,4.86 15,7.23 a 443.91,443.91 0 0 0 44.85,18.2 c 3.75,1.28 7.33,2.88 11.13,4.07 A 444.68,444.68 0 0 0 499,1018 c 5.71,1 11.48,1.84 17.26,2.64 a 450,450 0 0 0 59.11,4.59 c 0.76,0 1.49,0.12 2.25,0.12 14.92,0 29.65,-0.8 44.18,-2.23 C 99.46,898.55 298,314.47 617.54,361.07 Z"
       id="path3782"
       inkscape:connector-curvature="0"
       style="fill:#ffffff" />
    <path
       class="cls-2"
       d="m 799,601.8 c 0,0 110.14,-464.34 -385.64,-443.6 -166.25,65.67 -283.94,227.43 -283.94,417 a 451.1,451.1 0 0 0 4.61,61 C 238.37,110.86 832.8,281 799,601.8 Z"
       id="path3784"
       inkscape:connector-curvature="0"
       style="fill:#ffffff" />
    <path
       class="cls-2"
       d="m 560.95,801.62 c 0,0 466.35,60.88 437.16,-382.51 C 934.64,248.44 770.76,126.62 578,126.62 a 450.24,450.24 0 0 0 -81.35,7.73 c 519.64,63.79 384.58,671.81 64.3,667.27 z"
       id="path3786"
       inkscape:connector-curvature="0"
       style="fill:#ffffff" />
    <path
       class="cls-3"
       d="M 707.46,575.25 A 125.65,125.65 0 1 1 581.85,449.6 125.64,125.64 0 0 1 707.46,575.25 Z"
       id="path3788"
       inkscape:connector-curvature="0"
       style="fill:#ffffff" />
  </g>
</svg>
